<?xml version="1.0" encoding="UTF-8" standalone="no"?>
<!-- Created with Inkscape (http://www.inkscape.org/) -->
<svg
   xmlns:dc="http://purl.org/dc/elements/1.1/"
   xmlns:cc="http://web.resource.org/cc/"
   xmlns:rdf="http://www.w3.org/1999/02/22-rdf-syntax-ns#"
   xmlns:svg="http://www.w3.org/2000/svg"
   xmlns="http://www.w3.org/2000/svg"
   xmlns:xlink="http://www.w3.org/1999/xlink"
   xmlns:sodipodi="http://sodipodi.sourceforge.net/DTD/sodipodi-0.dtd"
   xmlns:inkscape="http://www.inkscape.org/namespaces/inkscape"
   width="256"
   height="256"
   id="svg3304"
   sodipodi:version="0.32"
   inkscape:version="0.45.1"
   sodipodi:docbase="/home/tsunami/Documentos/Programacion/Cinelerra/hvirtual/plugins/chromakeyhsv"
   sodipodi:docname="picon.png.svg"
   inkscape:output_extension="org.inkscape.output.svg.inkscape"
   inkscape:export-filename="/home/tsunami/Documentos/Desktop/Cinelerra/hvirtual/plugins/chromakeyhsv/picon.png"
   inkscape:export-xdpi="93.75"
   inkscape:export-ydpi="93.75"
   version="1.0">
  <defs
     id="defs3306">
    <linearGradient
       id="linearGradient4794"
       inkscape:collect="always">
      <stop
         id="stop4796"
         offset="0"
         style="stop-color:#8ae234;stop-opacity:1" />
      <stop
         id="stop4798"
         offset="1"
         style="stop-color:#4e9a06;stop-opacity:1" />
    </linearGradient>
    <linearGradient
       id="linearGradient4697">
      <stop
         id="stop4699"
         offset="0"
         style="stop-color:black;stop-opacity:1;" />
      <stop
         id="stop4701"
         offset="1"
         style="stop-color:#4e9a06;stop-opacity:1" />
    </linearGradient>
    <linearGradient
       id="linearGradient3186">
      <stop
         style="stop-color:#555753;stop-opacity:1"
         offset="0"
         id="stop3188" />
      <stop
         style="stop-color:#888a85;stop-opacity:1"
         offset="1"
         id="stop3190" />
    </linearGradient>
    <linearGradient
       id="linearGradient3178">
      <stop
         style="stop-color:#babdb6;stop-opacity:1"
         offset="0"
         id="stop3180" />
      <stop
         style="stop-color:#d3d7cf;stop-opacity:1"
         offset="1"
         id="stop3182" />
    </linearGradient>
    <linearGradient
       id="linearGradient3170"
       inkscape:collect="always">
      <stop
         id="stop3172"
         offset="0"
         style="stop-color:#2e3436;stop-opacity:1" />
      <stop
         id="stop3174"
         offset="1"
         style="stop-color:#888a85;stop-opacity:1" />
    </linearGradient>
    <linearGradient
       inkscape:collect="always"
       id="linearGradient3096">
      <stop
         style="stop-color:white;stop-opacity:1;"
         offset="0"
         id="stop3098" />
      <stop
         style="stop-color:white;stop-opacity:0;"
         offset="1"
         id="stop3100" />
    </linearGradient>
    <linearGradient
       inkscape:collect="always"
       id="linearGradient3014">
      <stop
         style="stop-color:white;stop-opacity:1;"
         offset="0"
         id="stop3016" />
      <stop
         style="stop-color:white;stop-opacity:0;"
         offset="1"
         id="stop3018" />
    </linearGradient>
    <linearGradient
       id="linearGradient2986">
      <stop
         style="stop-color:#babdb6;stop-opacity:1"
         offset="0"
         id="stop2988" />
      <stop
         id="stop2994"
         offset="0.3493976"
         style="stop-color:#eeeeec;stop-opacity:1;" />
      <stop
         style="stop-color:#888a85;stop-opacity:1"
         offset="1"
         id="stop2990" />
    </linearGradient>
    <linearGradient
       id="linearGradient2976">
      <stop
         style="stop-color:black;stop-opacity:1;"
         offset="0"
         id="stop2978" />
      <stop
         id="stop2984"
         offset="0.66265059"
         style="stop-color:#565855;stop-opacity:1;" />
      <stop
         style="stop-color:#2e3436;stop-opacity:1"
         offset="1"
         id="stop2980" />
    </linearGradient>
    <linearGradient
       inkscape:collect="always"
       id="linearGradient2951">
      <stop
         style="stop-color:white;stop-opacity:1;"
         offset="0"
         id="stop2953" />
      <stop
         style="stop-color:white;stop-opacity:0;"
         offset="1"
         id="stop2955" />
    </linearGradient>
    <linearGradient
       inkscape:collect="always"
       id="linearGradient2931">
      <stop
         style="stop-color:white;stop-opacity:1;"
         offset="0"
         id="stop2933" />
      <stop
         style="stop-color:white;stop-opacity:0;"
         offset="1"
         id="stop2935" />
    </linearGradient>
    <linearGradient
       id="linearGradient2915">
      <stop
         style="stop-color:#e9b96e;stop-opacity:1;"
         offset="0"
         id="stop2917" />
      <stop
         style="stop-color:#c17d11;stop-opacity:1"
         offset="1"
         id="stop2919" />
    </linearGradient>
    <linearGradient
       id="linearGradient2907">
      <stop
         style="stop-color:#c17d11;stop-opacity:1"
         offset="0"
         id="stop2909" />
      <stop
         style="stop-color:#e9b96e;stop-opacity:1;"
         offset="1"
         id="stop2911" />
    </linearGradient>
    <linearGradient
       id="linearGradient2899">
      <stop
         style="stop-color:#8f5902;stop-opacity:1;"
         offset="0"
         id="stop2901" />
      <stop
         style="stop-color:#633d00;stop-opacity:1;"
         offset="1"
         id="stop2903" />
    </linearGradient>
    <linearGradient
       inkscape:collect="always"
       id="linearGradient2848">
      <stop
         style="stop-color:black;stop-opacity:1;"
         offset="0"
         id="stop2850" />
      <stop
         style="stop-color:black;stop-opacity:0;"
         offset="1"
         id="stop2852" />
    </linearGradient>
    <linearGradient
       inkscape:collect="always"
       id="linearGradient7099">
      <stop
         style="stop-color:#495356;stop-opacity:1"
         offset="0"
         id="stop7101" />
      <stop
         style="stop-color:#1e2224;stop-opacity:1"
         offset="1"
         id="stop7103" />
    </linearGradient>
    <linearGradient
       inkscape:collect="always"
       id="linearGradient5225">
      <stop
         style="stop-color:black;stop-opacity:1;"
         offset="0"
         id="stop5227" />
      <stop
         style="stop-color:black;stop-opacity:0;"
         offset="1"
         id="stop5229" />
    </linearGradient>
    <linearGradient
       inkscape:collect="always"
       id="linearGradient6240">
      <stop
         style="stop-color:#ffffff;stop-opacity:1;"
         offset="0"
         id="stop6242" />
      <stop
         style="stop-color:#ffffff;stop-opacity:0;"
         offset="1"
         id="stop6244" />
    </linearGradient>
    <radialGradient
       inkscape:collect="always"
       xlink:href="#linearGradient5225"
       id="radialGradient3122"
       gradientUnits="userSpaceOnUse"
       gradientTransform="matrix(1,0,0,0.24763,0,32.1168)"
       cx="23.9375"
       cy="42.6875"
       fx="23.9375"
       fy="42.6875"
       r="23.75956" />
    <linearGradient
       inkscape:collect="always"
       xlink:href="#linearGradient2986"
       id="linearGradient3124"
       gradientUnits="userSpaceOnUse"
       gradientTransform="matrix(1.004118,0,0,1.023458,-47.19974,-10.87967)"
       x1="47.998985"
       y1="47.270309"
       x2="63.93848"
       y2="47.270309" />
    <linearGradient
       inkscape:collect="always"
       xlink:href="#linearGradient2976"
       id="linearGradient3126"
       gradientUnits="userSpaceOnUse"
       x1="62.960461"
       y1="31"
       x2="76.701622"
       y2="31" />
    <linearGradient
       inkscape:collect="always"
       xlink:href="#linearGradient3014"
       id="linearGradient3130"
       gradientUnits="userSpaceOnUse"
       gradientTransform="translate(-47,-10)"
       x1="47.520222"
       y1="53.989388"
       x2="51.531281"
       y2="40.391018" />
    <linearGradient
       inkscape:collect="always"
       xlink:href="#linearGradient3096"
       id="linearGradient3134"
       gradientUnits="userSpaceOnUse"
       gradientTransform="translate(-2,0)"
       x1="11.296875"
       y1="37.5"
       x2="10.296875"
       y2="32.890625" />
    <linearGradient
       inkscape:collect="always"
       xlink:href="#linearGradient3170"
       id="linearGradient3168"
       x1="5.3125"
       y1="26.99901"
       x2="5.625"
       y2="39"
       gradientUnits="userSpaceOnUse" />
    <linearGradient
       id="linearGradient2853">
      <stop
         style="stop-color:#416797;stop-opacity:1;"
         offset="0"
         id="stop2855" />
      <stop
         style="stop-color:#a7bed8;stop-opacity:1;"
         offset="1"
         id="stop2857" />
    </linearGradient>
    <linearGradient
       inkscape:collect="always"
       id="linearGradient5526">
      <stop
         style="stop-color:white;stop-opacity:1;"
         offset="0"
         id="stop5528" />
      <stop
         style="stop-color:white;stop-opacity:0;"
         offset="1"
         id="stop5530" />
    </linearGradient>
    <linearGradient
       inkscape:collect="always"
       id="linearGradient3678">
      <stop
         style="stop-color:white;stop-opacity:1;"
         offset="0"
         id="stop3680" />
      <stop
         style="stop-color:white;stop-opacity:0;"
         offset="1"
         id="stop3682" />
    </linearGradient>
    <linearGradient
       id="linearGradient4376">
      <stop
         id="stop4378"
         offset="0"
         style="stop-color:#babdb6;stop-opacity:1" />
      <stop
         id="stop4380"
         offset="1"
         style="stop-color:#eeeeec;stop-opacity:1" />
    </linearGradient>
    <linearGradient
       inkscape:collect="always"
       xlink:href="#linearGradient5526"
       id="linearGradient3106"
       gradientUnits="userSpaceOnUse"
       x1="3.875"
       y1="33.875"
       x2="4.1875"
       y2="39.375" />
    <linearGradient
       inkscape:collect="always"
       xlink:href="#linearGradient4376"
       id="linearGradient3146"
       gradientUnits="userSpaceOnUse"
       gradientTransform="translate(-1.6225832,-1.7058491)"
       x1="9.562501"
       y1="39.312511"
       x2="7.5000014"
       y2="34.187511" />
    <linearGradient
       inkscape:collect="always"
       xlink:href="#linearGradient3678"
       id="linearGradient3149"
       gradientUnits="userSpaceOnUse"
       gradientTransform="matrix(6.1940151,0,0,6.1940151,-15.397777,-53.836592)"
       x1="4.625"
       y1="-7.625"
       x2="23.875"
       y2="47.75" />
    <linearGradient
       inkscape:collect="always"
       xlink:href="#linearGradient2853"
       id="linearGradient3155"
       gradientUnits="userSpaceOnUse"
       gradientTransform="matrix(6.1940146,0,0,6.1940146,69.08631,-237.3045)"
       x1="-31.831854"
       y1="7.9310017"
       x2="-31.831854"
       y2="37.930984" />
    <radialGradient
       inkscape:collect="always"
       xlink:href="#linearGradient5225"
       id="radialGradient3170"
       gradientUnits="userSpaceOnUse"
       gradientTransform="matrix(1,0,0,0.24763,0,32.1168)"
       cx="23.9375"
       cy="42.6875"
       fx="23.9375"
       fy="42.6875"
       r="23.75956" />
    <linearGradient
       inkscape:collect="always"
       xlink:href="#linearGradient2915"
       id="linearGradient3172"
       gradientUnits="userSpaceOnUse"
       gradientTransform="translate(52.502679,-30.112698)"
       x1="27.65625"
       y1="40.4375"
       x2="32.469254"
       y2="40.4375" />
    <linearGradient
       inkscape:collect="always"
       xlink:href="#linearGradient2899"
       id="linearGradient3174"
       gradientUnits="userSpaceOnUse"
       gradientTransform="translate(52.502679,-30.112698)"
       x1="32"
       y1="37.25"
       x2="32"
       y2="34.270741" />
    <linearGradient
       inkscape:collect="always"
       xlink:href="#linearGradient7099"
       id="linearGradient3176"
       gradientUnits="userSpaceOnUse"
       x1="29.410439"
       y1="20.646769"
       x2="30.096174"
       y2="25.904074"
       gradientTransform="translate(52.502679,-31.112698)" />
    <linearGradient
       inkscape:collect="always"
       xlink:href="#linearGradient4697"
       id="linearGradient3179"
       gradientUnits="userSpaceOnUse"
       x1="27.510536"
       y1="25.361137"
       x2="28.028599"
       y2="20.057837"
       gradientTransform="translate(52.502679,-31.112698)" />
    <linearGradient
       inkscape:collect="always"
       xlink:href="#linearGradient2951"
       id="linearGradient3181"
       gradientUnits="userSpaceOnUse"
       x1="28.5"
       y1="44"
       x2="28"
       y2="30.375" />
    <linearGradient
       inkscape:collect="always"
       xlink:href="#linearGradient2907"
       id="linearGradient3183"
       gradientUnits="userSpaceOnUse"
       gradientTransform="translate(52.502679,-30.112698)"
       x1="28.747845"
       y1="28.779314"
       x2="28.747845"
       y2="32.069237" />
    <linearGradient
       inkscape:collect="always"
       xlink:href="#linearGradient2848"
       id="linearGradient3185"
       gradientUnits="userSpaceOnUse"
       gradientTransform="matrix(-1,0,0,1,111.48705,-30.112698)"
       x1="29.258053"
       y1="33.980518"
       x2="29.150778"
       y2="35.607071" />
    <linearGradient
       inkscape:collect="always"
       xlink:href="#linearGradient2931"
       id="linearGradient3187"
       gradientUnits="userSpaceOnUse"
       x1="26.282013"
       y1="28"
       x2="26.229612"
       y2="34.544891" />
    <linearGradient
       inkscape:collect="always"
       xlink:href="#linearGradient3178"
       id="linearGradient3189"
       gradientUnits="userSpaceOnUse"
       gradientTransform="translate(47.0226,-25.279067)"
       x1="38.5"
       y1="26.71874"
       x2="26.499989"
       y2="23.999994" />
    <linearGradient
       inkscape:collect="always"
       xlink:href="#linearGradient3186"
       id="linearGradient3191"
       gradientUnits="userSpaceOnUse"
       gradientTransform="translate(47.0226,-25.279067)"
       x1="26.084017"
       y1="25.422512"
       x2="26.084017"
       y2="28.000019" />
    <linearGradient
       inkscape:collect="always"
       xlink:href="#linearGradient4794"
       id="linearGradient4800"
       gradientUnits="userSpaceOnUse"
       gradientTransform="translate(-2,0)"
       x1="11.269515"
       y1="37.857437"
       x2="10.562407"
       y2="32.487843" />
    <radialGradient
       inkscape:collect="always"
       xlink:href="#linearGradient4794"
       id="radialGradient2302"
       gradientUnits="userSpaceOnUse"
       gradientTransform="matrix(-4.4467576,-7.7208684,-5.3793027,0.8151247,1415.7275,1471.7403)"
       cx="183.47745"
       cy="85.82869"
       fx="183.47745"
       fy="85.82869"
       r="19.00016" />
    <linearGradient
       inkscape:collect="always"
       xlink:href="#linearGradient6240"
       id="linearGradient2307"
       gradientUnits="userSpaceOnUse"
       gradientTransform="matrix(6.5451801,0,0,7.5848723,-30.456835,-52.949504)"
       x1="20.156862"
       y1="5.0996137"
       x2="20.156862"
       y2="26.039215" />
  </defs>
  <sodipodi:namedview
     id="base"
     pagecolor="#ffffff"
     bordercolor="#849193"
     borderopacity="1.0000000"
     inkscape:pageopacity="1"
     inkscape:pageshadow="2"
     inkscape:zoom="1.3195079"
     inkscape:cx="153.10528"
     inkscape:cy="81.847364"
     inkscape:current-layer="layer1"
     showgrid="false"
     inkscape:grid-bbox="true"
     inkscape:document-units="px"
     inkscape:showpageshadow="false"
     showborder="true"
     inkscape:window-width="1270"
     inkscape:window-height="747"
     inkscape:window-x="0"
     inkscape:window-y="25"
     showguides="true"
     inkscape:guide-bbox="true"
     inkscape:grid-points="false"
     gridspacingx="0.5px"
     gridspacingy="0.5px"
     gridempspacing="2"
     inkscape:object-points="false"
     inkscape:object-paths="false"
     width="256px"
     height="256px" />
  <metadata
     id="metadata3309">
    <rdf:RDF>
      <cc:Work
         rdf:about="">
        <dc:format>image/svg+xml</dc:format>
        <dc:type
           rdf:resource="http://purl.org/dc/dcmitype/StillImage" />
        <dc:title>Desktop Wallpaper</dc:title>
        <dc:creator>
          <cc:Agent>
            <dc:title>Luca Ferretti &lt;elle.uca@libero.it&gt;</dc:title>
          </cc:Agent>
        </dc:creator>
        <cc:license
           rdf:resource="http://creativecommons.org/licenses/GPL/2.0/" />
        <dc:subject>
          <rdf:Bag>
            <rdf:li>monitor</rdf:li>
            <rdf:li>display</rdf:li>
            <rdf:li>video</rdf:li>
            <rdf:li>screen</rdf:li>
            <rdf:li>LCD</rdf:li>
            <rdf:li>CRT</rdf:li>
          </rdf:Bag>
        </dc:subject>
        <dc:contributor>
          <cc:Agent>
            <dc:title>Andreas Nilsson &lt;nisses.mail@home.se&gt;
Jakub Steiner &lt;jimmac@novell.cX</dc:title>
          </cc:Agent>
        </dc:contributor>
      </cc:Work>
      <cc:License
         rdf:about="http://creativecommons.org/licenses/GPL/2.0/">
        <cc:permits
           rdf:resource="http://web.resource.org/cc/Reproduction" />
        <cc:permits
           rdf:resource="http://web.resource.org/cc/Distribution" />
        <cc:requires
           rdf:resource="http://web.resource.org/cc/Notice" />
        <cc:permits
           rdf:resource="http://web.resource.org/cc/DerivativeWorks" />
        <cc:requires
           rdf:resource="http://web.resource.org/cc/ShareAlike" />
        <cc:requires
           rdf:resource="http://web.resource.org/cc/SourceCode" />
      </cc:License>
    </rdf:RDF>
  </metadata>
  <g
     id="layer1"
     inkscape:label="Layer 1"
     inkscape:groupmode="layer">
    <rect
       y="-185.08272"
       x="-248.86395"
       height="179.62634"
       width="241.56647"
       id="rect1879"
       style="color:#000000;fill:url(#linearGradient3155);fill-opacity:1;fill-rule:nonzero;stroke:#888a85;stroke-width:6.19401312;stroke-linecap:round;stroke-linejoin:round;marker:none;marker-start:none;marker-mid:none;marker-end:none;stroke-miterlimit:4;stroke-dasharray:none;stroke-dashoffset:1.20000057;stroke-opacity:1;visibility:visible;display:inline;overflow:visible"
       transform="matrix(-0.9999968,-2.5349515e-3,2.5349515e-3,-0.9999968,0,0)" />
    <g
       transform="matrix(-6.1940151,0,0,-6.1940151,269.52691,243.47625)"
       style="opacity:0.1;display:inline"
       id="g5550">
      <path
         style="color:#000000;fill:#000000;fill-opacity:1;fill-rule:nonzero;stroke:#000000;stroke-width:1.00000012;stroke-linecap:round;stroke-linejoin:round;marker:none;marker-start:none;marker-mid:none;marker-end:none;stroke-miterlimit:4;stroke-dashoffset:1.20000057;stroke-opacity:1;visibility:visible;display:inline;overflow:visible"
         d="M 11.5,10.013768 L 4.013757,17.500012 C 3.729135,17.500012 3.5,17.270877 3.5,16.986255 L 3.5,10.013768 C 3.5,9.7291462 3.729135,9.5000105 4.013757,9.5000105 L 10.986243,9.5000105 C 11.270865,9.5000105 11.5,9.7291462 11.5,10.013768 z "
         id="path5552"
         sodipodi:nodetypes="ccccccc" />
      <path
         style="color:#000000;fill:#000000;fill-opacity:1;fill-rule:nonzero;stroke:#000000;stroke-width:1.00000012;stroke-linecap:round;stroke-linejoin:round;marker:none;marker-start:none;marker-mid:none;marker-end:none;stroke-miterlimit:4;stroke-dashoffset:1.20000057;stroke-opacity:1;visibility:visible;display:inline;overflow:visible"
         d="M 41.986242,17.50001 L 34.499998,10.013767 C 34.499998,9.729145 34.729133,9.50001 35.013755,9.50001 L 41.986242,9.50001 C 42.270864,9.50001 42.5,9.729145 42.5,10.013767 L 42.5,16.986253 C 42.5,17.270875 42.270864,17.50001 41.986242,17.50001 z "
         id="path5554"
         sodipodi:nodetypes="ccccccc" />
    </g>
    <path
       style="fill:url(#radialGradient2302);fill-opacity:1;fill-rule:evenodd;stroke:#448705;stroke-width:5.29067755px;stroke-linecap:butt;stroke-linejoin:miter;stroke-opacity:1"
       d="M 8.3761154,10.71093 L 40.507568,64.714997 L 39.733316,64.521433 L 39.926879,117.94481 C 39.926872,122.35089 46.169271,122.23913 46.120893,117.55769 C 43.306495,85.467856 55.693961,89.872784 55.605476,74.006022 C 55.591994,71.872925 58.702487,71.935046 58.702487,73.425328 L 58.702487,149.49558 C 58.702481,153.90164 65.090066,153.90165 65.090066,149.49558 C 65.287492,123.2211 74.17979,138.04523 74.574649,113.87999 C 74.61819,111.19927 76.881934,111.95562 77.671659,113.10574 L 103.02841,139.4303 L 179.48578,148.14064 C 179.48579,120.87804 218.63283,111.6647 235.42547,111.17011 L 242.20018,112.52505 L 242.20018,111.36367 L 243.36156,111.55723 C 245.6651,111.55723 244.50509,111.32869 242.20018,111.17011 L 242.20018,10.71093 L 8.3761154,10.71093 z M 161.48442,24.647463 C 165.615,24.647519 169.24521,25.312039 172.32395,26.38953 C 175.42827,27.441475 178.14452,29.087535 180.45359,31.422168 L 171.74326,40.132501 C 170.3065,38.695811 168.76535,37.613938 167.09775,37.229057 C 165.43008,36.844261 163.43196,36.648412 161.09729,36.648367 C 158.89087,36.64841 157.21916,37.338587 156.06466,38.390434 C 154.91012,39.442369 154.32258,40.514847 154.32259,41.874568 C 154.32258,42.875186 154.73993,43.840468 155.48397,44.584449 C 156.35625,45.45679 157.66192,45.902083 159.35523,46.132953 L 166.12993,47.100768 C 171.05583,47.819159 174.72568,49.360314 177.16302,51.74628 C 178.62538,53.157382 179.61859,54.945691 180.26003,56.972478 C 180.92702,58.973662 181.2278,61.36349 181.22784,64.134309 C 181.2278,67.803113 180.27421,70.950693 178.3244,73.618893 C 176.40019,76.28711 173.69789,78.233933 170.38832,79.619349 C 167.10434,80.979114 163.52543,81.748536 159.54879,81.748536 C 154.90506,81.748548 150.98576,81.109678 147.54789,80.006472 C 144.10999,78.903266 140.92508,77.11267 138.25686,74.393145 L 147.16076,65.48925 C 148.54617,66.874684 150.3228,67.944871 152.58053,68.586254 C 154.83822,69.20201 157.30503,69.360519 159.74235,69.360507 C 165.10441,69.360519 167.67841,67.688805 167.67844,64.327874 C 167.6784,62.891163 167.26105,61.806994 166.51706,61.037299 C 165.77302,60.267646 164.55828,59.913285 162.83936,59.682359 L 156.06466,58.714547 C 151.08742,58.021863 147.37793,56.298831 144.83801,53.681909 C 142.27242,51.039384 140.96674,47.329903 140.96675,42.455257 C 140.96673,39.043065 141.84108,36.026054 143.48307,33.357797 C 145.15069,30.663981 147.56618,28.483969 150.64489,26.970219 C 153.74924,25.456579 157.32815,24.64752 161.48442,24.647463 z M 90.059688,25.228153 L 103.80266,25.228153 L 103.80266,46.713642 L 118.51344,46.713642 L 118.51344,25.228153 L 132.25641,25.228153 L 132.25641,81.167848 L 118.51344,81.167848 L 118.51344,59.101671 L 103.80266,59.101671 L 103.80266,81.167848 L 90.059688,81.167848 L 90.059688,25.228153 z M 184.71198,25.228153 L 199.03564,25.228153 L 208.52022,56.585354 L 217.81125,25.228153 L 232.13491,25.228153 L 213.55286,81.167848 L 203.29402,81.167848 L 184.71198,25.228153 z "
       id="rect9208" />
    <path
       style="opacity:0.17579998;fill:url(#linearGradient2307);fill-opacity:1;fill-rule:evenodd;stroke:none;stroke-width:1px;stroke-linecap:butt;stroke-linejoin:miter;stroke-opacity:1"
       d="M 244.32937,7.8074855 L 8.9568045,8.0010489 L 8.9568045,144.46294 C 96.492158,136.10904 139.54158,90.76107 199.61633,70.328324 L 184.71198,25.228153 L 199.03564,25.228153 L 208.52022,56.585354 L 217.81125,25.228153 L 232.13491,25.228153 L 218.97262,64.714997 C 227.0306,62.89455 235.41174,61.551006 244.32937,60.843741 L 244.32937,7.8074855 z M 161.48442,24.647463 C 165.615,24.647519 169.24521,25.312039 172.32395,26.38953 C 175.42827,27.441475 178.14452,29.087535 180.45359,31.422168 L 171.74326,40.132501 C 170.3065,38.695811 168.76535,37.613938 167.09775,37.229057 C 165.43008,36.844261 163.43196,36.648412 161.09729,36.648367 C 158.89087,36.64841 157.21916,37.338587 156.06466,38.390434 C 154.91012,39.442369 154.32258,40.514847 154.32259,41.874568 C 154.32258,42.875186 154.73993,43.840468 155.48397,44.584449 C 156.35625,45.45679 157.66192,45.902083 159.35523,46.132953 L 166.12993,47.100768 C 171.05583,47.819159 174.72568,49.360314 177.16302,51.74628 C 178.62538,53.157382 179.61859,54.945691 180.26003,56.972478 C 180.92702,58.973662 181.2278,61.36349 181.22784,64.134309 C 181.2278,67.803113 180.27421,70.950693 178.3244,73.618893 C 176.40019,76.28711 173.69789,78.233933 170.38832,79.619349 C 167.10434,80.979114 163.52543,81.748536 159.54879,81.748536 C 154.90506,81.748548 150.98576,81.109678 147.54789,80.006472 C 144.10999,78.903266 140.92508,77.11267 138.25686,74.393145 L 147.16076,65.48925 C 148.54617,66.874684 150.3228,67.944871 152.58053,68.586254 C 154.83822,69.20201 157.30503,69.360519 159.74235,69.360507 C 165.10441,69.360519 167.67841,67.688805 167.67844,64.327874 C 167.6784,62.891163 167.26105,61.806994 166.51706,61.037299 C 165.77302,60.267646 164.55828,59.913285 162.83936,59.682359 L 156.06466,58.714547 C 151.08742,58.021863 147.37793,56.298831 144.83801,53.681909 C 142.27242,51.039384 140.96674,47.329903 140.96675,42.455257 C 140.96673,39.043065 141.84108,36.026054 143.48307,33.357797 C 145.15069,30.663981 147.56618,28.483969 150.64489,26.970219 C 153.74924,25.456579 157.32815,24.64752 161.48442,24.647463 z M 90.059688,25.228153 L 103.80266,25.228153 L 103.80266,46.713642 L 118.51344,46.713642 L 118.51344,25.228153 L 132.25641,25.228153 L 132.25641,81.167848 L 118.51344,81.167848 L 118.51344,59.101671 L 103.80266,59.101671 L 103.80266,81.167848 L 90.059688,81.167848 L 90.059688,25.228153 z "
       id="path4073" />
    <rect
       y="11.200558"
       x="12.475174"
       height="167.23822"
       width="229.1787"
       id="rect3674"
       style="color:#000000;fill:none;fill-opacity:1;fill-rule:nonzero;stroke:url(#linearGradient3149);stroke-width:6.19401217;stroke-linecap:round;stroke-linejoin:round;marker:none;marker-start:none;marker-mid:none;marker-end:none;stroke-miterlimit:4;stroke-dasharray:none;stroke-dashoffset:1.20000057;stroke-opacity:1;visibility:visible;display:inline;overflow:visible" />
    <g
       transform="translate(-44.115085,28.810403)"
       inkscape:label="Shadow"
       id="layer6" />
    <g
       transform="translate(-44.115085,28.810403)"
       id="g6461"
       inkscape:label="Base"
       style="display:inline" />
    <g
       transform="translate(-56.380215,76.310393)"
       style="display:inline"
       inkscape:label="base"
       id="g2637" />
    <g
       transform="translate(-60.562445,53.273864)"
       id="g3051">
      <rect
         style="opacity:0.3;fill:#ffffff;fill-opacity:1;stroke:none;stroke-width:1.00199997;stroke-linecap:round;stroke-linejoin:miter;stroke-miterlimit:4;stroke-dasharray:none;stroke-dashoffset:1.20000057;stroke-opacity:1"
         id="rect2867"
         width="0.21875"
         height="9.875"
         x="13.28125"
         y="8.4375"
         rx="0.109375"
         ry="0.109375" />
      <rect
         style="opacity:0.3;fill:#ffffff;fill-opacity:1;stroke:none;stroke-width:1.00199997;stroke-linecap:round;stroke-linejoin:miter;stroke-miterlimit:4;stroke-dasharray:none;stroke-dashoffset:1.20000057;stroke-opacity:1"
         id="rect2869"
         width="0.21875"
         height="16.5625"
         x="16.265625"
         y="9"
         rx="0.109375"
         ry="0.109375" />
      <path
         sodipodi:type="arc"
         style="opacity:0.3;fill:#ffffff;fill-opacity:1;stroke:none;stroke-width:1.00199997;stroke-linecap:round;stroke-linejoin:miter;stroke-miterlimit:4;stroke-dasharray:none;stroke-dashoffset:1.20000057;stroke-opacity:1"
         id="path2871"
         sodipodi:cx="13.46875"
         sodipodi:cy="19.007812"
         sodipodi:rx="0.2265625"
         sodipodi:ry="0.2421875"
         d="M 13.695312 19.007812 A 0.2265625 0.2421875 0 1 1  13.242188,19.007812 A 0.2265625 0.2421875 0 1 1  13.695312 19.007812 z"
         transform="translate(-0.125,-0.242188)" />
      <path
         sodipodi:type="arc"
         style="opacity:0.3;fill:#ffffff;fill-opacity:1;stroke:none;stroke-width:1.00199997;stroke-linecap:round;stroke-linejoin:miter;stroke-miterlimit:4;stroke-dasharray:none;stroke-dashoffset:1.20000057;stroke-opacity:1"
         id="path2873"
         sodipodi:cx="13.46875"
         sodipodi:cy="19.007812"
         sodipodi:rx="0.2265625"
         sodipodi:ry="0.2421875"
         d="M 13.695312 19.007812 A 0.2265625 0.2421875 0 1 1  13.242188,19.007812 A 0.2265625 0.2421875 0 1 1  13.695312 19.007812 z"
         transform="translate(2.859375,7.078124)" />
    </g>
    <g
       id="g3158"
       transform="matrix(2.8858045,-2.0796792,2.0796792,2.8858045,-31.577301,311.32945)">
      <g
         transform="translate(-2.4800782,2.8336313)"
         id="g3136">
        <path
           sodipodi:type="arc"
           style="opacity:0.3;fill:url(#radialGradient3170);fill-opacity:1;fill-rule:evenodd;stroke:none;stroke-width:1px;stroke-linecap:butt;stroke-linejoin:miter;stroke-opacity:1"
           id="path11126"
           sodipodi:cx="23.9375"
           sodipodi:cy="42.6875"
           sodipodi:rx="23.75956"
           sodipodi:ry="5.8835783"
           d="M 47.69706 42.6875 A 23.75956 5.8835783 0 1 1  0.17794037,42.6875 A 23.75956 5.8835783 0 1 1  47.69706 42.6875 z"
           transform="matrix(0.230912,0,0,0.424911,76.461589,-3.7510984)" />
        <path
           style="fill:url(#linearGradient3172);fill-opacity:1;fill-rule:evenodd;stroke:url(#linearGradient3174);stroke-width:0.99999982px;stroke-linecap:butt;stroke-linejoin:miter;stroke-opacity:1"
           d="M 83.513741,1.3872926 C 83.513741,1.3872926 85.031249,9.1404256 85.00268,11.311374 C 84.974579,13.446733 84.322337,15.324789 81.972061,15.324789 C 79.652709,15.324789 79.034215,13.591724 79.003291,11.311374 C 78.97237,9.0313156 80.460329,1.4497926 80.460329,1.4497926 L 83.513741,1.3872926 z "
           id="path5257"
           sodipodi:nodetypes="czzzcc" />
        <path
           style="fill:url(#linearGradient3176);fill-opacity:1;fill-rule:evenodd;stroke:url(#linearGradient3179);stroke-width:1.00000012px;stroke-linecap:butt;stroke-linejoin:miter;stroke-opacity:1"
           d="M 75.002679,-3.6126984 C 74.961174,-8.0501984 72.91967,-11.675198 73.002679,-11.612698 C 74.496844,-10.300198 76.489064,-10.112698 77.485174,-7.6751984 C 77.485174,-7.6126984 79.477394,-9.1126984 79.041595,-10.675198 C 80.473504,-10.112698 80.660274,-8.9668654 81.469614,-8.1126984 L 82.465724,-11.112698 L 84.953198,-8.1126984 L 88.012117,-11.112698 C 88.012117,-11.112698 88.940423,-6.1751984 89.002679,-3.6126984 L 75.002679,-3.6126984 z "
           id="path5265"
           sodipodi:nodetypes="cccccccccc" />
        <path
           transform="translate(52.502679,-30.112698)"
           sodipodi:type="inkscape:offset"
           inkscape:radius="-1.0008699"
           inkscape:original="M 31 31.5 L 27.96875 31.5625 C 27.96875 31.5625 26.469079 39.157442 26.5 41.4375 C 26.530924 43.71785 27.149399 45.437498 29.46875 45.4375 C 31.819026 45.4375 32.4719 43.572859 32.5 41.4375 C 32.528569 39.266552 30.999999 31.500001 31 31.5 z "
           style="opacity:0.6;fill:none;fill-opacity:1;fill-rule:evenodd;stroke:url(#linearGradient3181);stroke-width:0.99999982px;stroke-linecap:butt;stroke-linejoin:miter;stroke-opacity:1"
           id="path2945"
           d="M 28.78125,32.53125 C 28.676459,33.071127 28.516065,34.062725 28.21875,35.8125 C 27.850299,37.980933 27.487719,40.531913 27.5,41.4375 C 27.514282,42.490626 27.68577,43.298803 27.96875,43.75 C 28.25173,44.201197 28.556434,44.437499 29.46875,44.4375 C 30.379201,44.4375 30.69847,44.198746 31,43.71875 C 31.30153,43.238754 31.487242,42.407035 31.5,41.4375 C 31.510987,40.602572 31.157352,38.011071 30.78125,35.8125 C 30.482124,34.063903 30.298448,33.104627 30.1875,32.53125 L 28.78125,32.53125 z " />
        <path
           style="fill:url(#linearGradient3183);fill-opacity:1;fill-rule:evenodd;stroke:#8f5902;stroke-width:1px;stroke-linecap:butt;stroke-linejoin:miter;stroke-opacity:1"
           d="M 75.00739,1.8825906 L 75.002679,-2.6126984 L 89.002679,-2.6126984 L 89.00739,1.8825906 C 89.00739,2.8825906 88.502679,3.4081346 87.502679,3.3873016 L 76.502679,3.3873016 C 75.502679,3.3873016 75.002679,2.8873016 75.00739,1.8825906 z "
           id="path5259"
           sodipodi:nodetypes="ccccccc" />
        <path
           style="opacity:0.3608247;color:#000000;fill:url(#linearGradient3185);fill-opacity:1;fill-rule:nonzero;stroke:none;stroke-width:1;stroke-linecap:butt;stroke-linejoin:miter;marker:none;marker-start:none;marker-mid:none;marker-end:none;stroke-miterlimit:10;stroke-dasharray:none;stroke-dashoffset:0;stroke-opacity:1;visibility:visible;display:inline;overflow:visible"
           d="M 80.487054,3.8873016 L 83.471429,3.8794886 C 83.715539,5.2053506 83.663201,4.8560716 83.866124,6.2025276 C 83.225722,4.2224656 80.987054,3.8873016 80.487054,3.8873016 z "
           id="path2846"
           sodipodi:nodetypes="cccc" />
        <path
           style="opacity:1;color:#000000;fill:#4e9a06;fill-opacity:1;fill-rule:nonzero;stroke:none;stroke-width:1;stroke-linecap:butt;stroke-linejoin:miter;marker:none;marker-start:none;marker-mid:none;marker-end:none;stroke-miterlimit:10;stroke-dasharray:none;stroke-dashoffset:0;stroke-opacity:1;visibility:visible;display:inline;overflow:visible"
           d="M 74.246213,-10.159532 L 75.306873,-6.0052804 L 75.439455,-8.4138634 C 76.437352,-8.1557544 76.743786,-6.6031064 77.428193,-5.7180184 C 78.182042,-6.2330594 79.206188,-6.8277994 79.903067,-7.6846594 L 81.891804,-6.2262514 L 83.350212,-8.1266004 L 85.471533,-6.0936684 L 88.211572,-7.9498244 L 87.76963,-10.071144 L 84.941203,-7.3311054 L 82.643106,-10.115338 C 82.307986,-9.0768144 81.951255,-7.9950674 81.670834,-7.0659404 C 80.907997,-7.8622344 80.439807,-8.9531614 79.549514,-9.7838824 C 79.19888,-8.9314734 78.921283,-7.9812744 77.207222,-7.0659404 C 76.593942,-8.4049104 75.848382,-9.6349424 74.246213,-10.159532 z "
           id="path2870"
           sodipodi:nodetypes="cccccccccccccccc" />
        <path
           transform="translate(52.502679,-30.112698)"
           sodipodi:type="inkscape:offset"
           inkscape:radius="-0.9921875"
           inkscape:original="M 22.5 27.5 L 22.5 32 C 22.495289 33.004711 23 33.5 24 33.5 L 35 33.5 C 36 33.520833 36.5 33 36.5 32 L 36.5 27.5 L 22.5 27.5 z "
           style="opacity:0.6;fill:none;fill-opacity:1;fill-rule:evenodd;stroke:url(#linearGradient3187);stroke-width:1px;stroke-linecap:butt;stroke-linejoin:miter;stroke-opacity:1"
           id="path2929"
           d="M 23.5,28.5 L 23.5,32 C 23.498427,32.335457 23.547425,32.422496 23.5625,32.4375 C 23.577575,32.452504 23.663807,32.5 24,32.5 L 35,32.5 C 35.010416,32.499836 35.020834,32.499836 35.03125,32.5 C 35.355665,32.506759 35.390083,32.453836 35.40625,32.4375 C 35.422417,32.421164 35.5,32.334635 35.5,32 L 35.5,28.5 L 23.5,28.5 z " />
      </g>
      <path
         id="rect3176"
         d="M 86.522601,0.24682059 L 86.522601,1.1950446 C 86.522601,1.7633866 86.065055,2.2209326 85.496713,2.2209326 L 73.548489,2.2209326 C 72.980147,2.2209326 72.522601,1.7633866 72.522601,1.1950446 L 72.522601,0.24682059 L 86.522601,0.24682059 z "
         style="fill:url(#linearGradient3189);fill-opacity:1;stroke:url(#linearGradient3191);stroke-width:0.9999997;stroke-linecap:round;stroke-linejoin:miter;stroke-miterlimit:4;stroke-dashoffset:1.20000057;stroke-opacity:1" />
    </g>
    <g
       id="g4747"
       transform="matrix(4.9379324,0,0,4.9379324,12.226256,11.520288)">
      <path
         style="color:#000000;fill:url(#linearGradient3146);fill-opacity:1;fill-rule:nonzero;stroke:#888a85;stroke-width:1.00000012;stroke-linecap:round;stroke-linejoin:round;marker:none;marker-start:none;marker-mid:none;marker-end:none;stroke-miterlimit:4;stroke-dashoffset:1.20000057;stroke-opacity:1;visibility:visible;display:inline;overflow:visible"
         d="M 2.3911748,29.794162 L 9.8774196,37.280404 C 9.8774196,37.565026 9.6482846,37.794162 9.3636623,37.794162 L 2.3911748,37.794162 C 2.1065528,37.794162 1.8774168,37.565026 1.8774168,37.280404 L 1.8774168,30.307919 C 1.8774168,30.023297 2.1065528,29.794162 2.3911748,29.794162 z "
         id="rect2768"
         sodipodi:nodetypes="ccccccc" />
      <path
         sodipodi:type="inkscape:offset"
         inkscape:radius="-0.9952234"
         inkscape:original="M 3 31.5 C 2.7153785 31.5 2.5 31.715378 2.5 32 L 2.5 39 C 2.5 39.284622 2.7153785 39.499999 3 39.5 L 10 39.5 C 10.284622 39.5 10.5 39.284623 10.5 39 L 3 31.5 z "
         style="opacity:0.6;color:#000000;fill:none;fill-opacity:1;fill-rule:nonzero;stroke:url(#linearGradient3106);stroke-width:1;stroke-linecap:round;stroke-linejoin:miter;marker:none;marker-start:none;marker-mid:none;marker-end:none;stroke-miterlimit:4;stroke-dasharray:none;stroke-dashoffset:1.20000057;stroke-opacity:1;visibility:visible;display:inline;overflow:visible"
         id="path3688"
         d="M 3.5,33.4375 L 3.5,38.5 L 8.5625,38.5 L 3.5,33.4375 z "
         transform="translate(-0.6225832,-1.7058491)" />
      <g
         transform="translate(-6.5864791e-2,0.5909903)"
         id="g3108">
        <path
           sodipodi:type="arc"
           style="opacity:0.3;fill:url(#radialGradient3122);fill-opacity:1;fill-rule:evenodd;stroke:none;stroke-width:1px;stroke-linecap:butt;stroke-linejoin:miter;stroke-opacity:1"
           id="path3059"
           sodipodi:cx="23.9375"
           sodipodi:cy="42.6875"
           sodipodi:rx="23.75956"
           sodipodi:ry="5.8835783"
           d="M 47.69706 42.6875 A 23.75956 5.8835783 0 1 1  0.17794037,42.6875 A 23.75956 5.8835783 0 1 1  47.69706 42.6875 z"
           transform="matrix(0.410361,0,0,0.679858,-7.302e-2,15.97855)" />
        <path
           style="fill:none;fill-opacity:0.75;fill-rule:evenodd;stroke:#000000;stroke-width:0.99999982px;stroke-linecap:round;stroke-linejoin:round;stroke-opacity:1"
           d="M 17.5,34.5 L 14.5,31.5"
           id="path3022"
           sodipodi:nodetypes="cc" />
        <path
           style="opacity:1;fill:url(#linearGradient3124);fill-opacity:1;stroke:url(#linearGradient3168);stroke-width:1.00199974;stroke-linecap:round;stroke-linejoin:miter;stroke-miterlimit:4;stroke-dasharray:none;stroke-dashoffset:1.20000057;stroke-opacity:1"
           d="M 8.999472,27.50001 C 4.859746,27.50001 1.499968,28.744393 1.499968,30.277649 L 1.499968,43.721374 C 1.499968,45.254631 4.859746,46.499014 8.999472,46.499014 C 13.139199,46.499014 16.49898,45.254631 16.49898,43.721374 L 16.49898,30.277649 C 16.49898,28.744393 13.139199,27.50001 8.999472,27.50001 z "
           id="path2960"
           sodipodi:nodetypes="cccsccc" />
        <path
           style="fill:none;fill-opacity:1;stroke:url(#linearGradient3130);stroke-width:1.00199974;stroke-linecap:round;stroke-linejoin:miter;stroke-miterlimit:4;stroke-dashoffset:1.20000057;stroke-opacity:1"
           d="M 9,28.5 C 7.031106,28.5 5.264027,28.804224 4.0625,29.25 C 3.461736,29.472888 2.993416,29.755525 2.75,29.96875 C 2.506584,30.181975 2.5,30.264948 2.5,30.28125 L 2.5,43.71875 C 2.5,43.735051 2.506584,43.818025 2.75,44.03125 C 2.993416,44.244475 3.461736,44.527112 4.0625,44.75 C 5.264028,45.195776 7.031107,45.5 9,45.5 C 10.968893,45.499999 12.735972,45.195775 13.9375,44.75 C 14.538264,44.527112 15.006584,44.244475 15.25,44.03125 C 15.493416,43.818025 15.5,43.735052 15.5,43.71875 L 15.5,30.28125 C 15.5,30.264948 15.493416,30.181975 15.25,29.96875 C 15.006584,29.755525 14.538264,29.472888 13.9375,29.25 C 12.735973,28.804224 10.968894,28.5 9,28.5 z "
           id="path3012"
           sodipodi:nodetypes="cssccsssssccssc" />
        <path
           sodipodi:type="arc"
           style="opacity:1;fill:url(#linearGradient3126);fill-opacity:1;stroke:#ffffff;stroke-width:1.16285086;stroke-linecap:round;stroke-linejoin:miter;stroke-miterlimit:4;stroke-dasharray:none;stroke-dashoffset:1.20000057;stroke-opacity:1"
           id="path2966"
           sodipodi:cx="70.5"
           sodipodi:cy="31"
           sodipodi:rx="7"
           sodipodi:ry="2.5"
           d="M 77.5 31 A 7 2.5 0 1 1  63.5,31 A 7 2.5 0 1 1  77.5 31 z"
           transform="matrix(0.92857,0,0,0.7996,-56.46419,5.7124)" />
        <path
           style="opacity:0.1;fill:#000000;fill-opacity:1;fill-rule:evenodd;stroke:none;stroke-width:1px;stroke-linecap:butt;stroke-linejoin:miter;stroke-opacity:1"
           d="M 9.345005,42.713128 C 9.204923,33.22204 5.5778229,33.856805 7.3345971,32.244313 C 12.218053,32.564721 14.649587,31.727633 15.3125,30.84375 C 17.886277,34.05394 10.425369,32.933485 11.326364,42.68907 C 11.311035,44.320128 9.306448,44.764338 9.345005,42.713128 z "
           id="path3106"
           sodipodi:nodetypes="ccccc" />
        <path
           sodipodi:type="arc"
           style="opacity:0.6;fill:#888a85;fill-opacity:1;stroke:none;stroke-width:1;stroke-linecap:round;stroke-linejoin:round;stroke-miterlimit:4;stroke-dasharray:none;stroke-opacity:1"
           id="path3030"
           sodipodi:cx="5"
           sodipodi:cy="35.747044"
           sodipodi:rx="2"
           sodipodi:ry="1.7470434"
           d="M 7 35.747044 A 2 1.7470434 0 1 1  3,35.747044 A 2 1.7470434 0 1 1  7 35.747044 z"
           transform="matrix(0.75,0.125,0,0.858593,1.75,4.182838)" />
        <path
           style="opacity:1;fill:url(#linearGradient4800);fill-opacity:1;fill-rule:evenodd;stroke:none;stroke-width:1px;stroke-linecap:butt;stroke-linejoin:miter;stroke-opacity:1"
           d="M 9.032505,42.369378 C 9.283048,30.94079 3.6246979,33.71618 5.7095971,31.728688 C 11.354185,32.403616 14.372165,31.395576 15,30.5 C 17.573777,33.71019 10.112869,32.589735 11.013864,42.34532 C 10.998535,43.976378 8.993948,44.420588 9.032505,42.369378 z "
           id="path3068"
           sodipodi:nodetypes="ccccc" />
        <path
           style="opacity:0.3;fill:none;fill-opacity:1;fill-rule:evenodd;stroke:url(#linearGradient3134);stroke-width:0.40000001;stroke-linecap:round;stroke-linejoin:miter;stroke-miterlimit:4;stroke-dasharray:none;stroke-opacity:1"
           d="M 7.718751,33.531255 C 8.311668,34.522063 9.518863,36.400453 9.593751,41.734382"
           id="path3088"
           sodipodi:nodetypes="cs" />
        <path
           style="fill:none;fill-opacity:0.75;fill-rule:evenodd;stroke:#000000;stroke-width:1.00000012px;stroke-linecap:round;stroke-linejoin:round;stroke-opacity:1"
           d="M 5.5,35.5 C 5.5,35.5 10.361634,41.443248 13.611814,41.498777 C 16.861994,41.554307 18.47873,39.728474 18.5,37.42227 C 18.52129,35.116178 17.5,34.500009 17.5,34.500009"
           id="path3028"
           sodipodi:nodetypes="czzc" />
        <path
           style="opacity:0.6;fill:none;fill-opacity:1;fill-rule:evenodd;stroke:#ffffff;stroke-width:0.30000001;stroke-linecap:round;stroke-linejoin:miter;stroke-miterlimit:4;stroke-dasharray:none;stroke-opacity:1"
           d="M 6.0386501,32.310689 C 10.705693,32.898531 14.322287,32.215648 14.955822,31.212724"
           id="path3070"
           sodipodi:nodetypes="cc" />
        <path
           sodipodi:type="arc"
           style="opacity:0.3;fill:#ffffff;fill-opacity:1;stroke:none;stroke-width:0.40000001;stroke-linecap:round;stroke-linejoin:miter;stroke-miterlimit:4;stroke-dasharray:none;stroke-dashoffset:1.20000057;stroke-opacity:1"
           id="path3104"
           sodipodi:cx="11.726562"
           sodipodi:cy="42.710938"
           sodipodi:rx="0.4140625"
           sodipodi:ry="0.3671875"
           d="M 12.140624 42.710938 A 0.4140625 0.3671875 0 1 1  11.312499,42.710938 A 0.4140625 0.3671875 0 1 1  12.140624 42.710938 z"
           transform="matrix(0.773585,0,0,1.191489,0.561321,-8.249003)" />
      </g>
    </g>
  </g>
  <g
     inkscape:groupmode="layer"
     id="layer2"
     inkscape:label="new" />
</svg>
