<?xml version="1.0" encoding="UTF-8" standalone="no"?>
<!-- Created with Inkscape (http://www.inkscape.org/) -->

<svg
   xmlns:dc="http://purl.org/dc/elements/1.1/"
   xmlns:cc="http://creativecommons.org/ns#"
   xmlns:rdf="http://www.w3.org/1999/02/22-rdf-syntax-ns#"
   xmlns:svg="http://www.w3.org/2000/svg"
   xmlns="http://www.w3.org/2000/svg"
   xmlns:xlink="http://www.w3.org/1999/xlink"
   xmlns:sodipodi="http://sodipodi.sourceforge.net/DTD/sodipodi-0.dtd"
   xmlns:inkscape="http://www.inkscape.org/namespaces/inkscape"
   width="256"
   height="256"
   id="svg1306"
   sodipodi:version="0.32"
   inkscape:version="0.47pre4 r22446"
   sodipodi:docname="svg.svg"
   inkscape:output_extension="org.inkscape.output.svg.inkscape"
   inkscape:export-filename="/home/tsunami/Documentos/Desktop/Cinelerra/hvirtual/plugins/despike/picon.png"
   inkscape:export-xdpi="93.75"
   inkscape:export-ydpi="93.75"
   version="1.0">
  <defs
     id="defs1308">
    <inkscape:perspective
       sodipodi:type="inkscape:persp3d"
       inkscape:vp_x="0 : 128 : 1"
       inkscape:vp_y="0 : 1000 : 0"
       inkscape:vp_z="256 : 128 : 1"
       inkscape:persp3d-origin="128 : 85.333333 : 1"
       id="perspective81" />
    <linearGradient
       inkscape:collect="always"
       id="linearGradient5060">
      <stop
         style="stop-color:black;stop-opacity:1;"
         offset="0"
         id="stop5062" />
      <stop
         style="stop-color:black;stop-opacity:0;"
         offset="1"
         id="stop5064" />
    </linearGradient>
    <linearGradient
       id="linearGradient5048">
      <stop
         style="stop-color:black;stop-opacity:0;"
         offset="0"
         id="stop5050" />
      <stop
         id="stop5056"
         offset="0.5"
         style="stop-color:black;stop-opacity:1;" />
      <stop
         style="stop-color:black;stop-opacity:0;"
         offset="1"
         id="stop5052" />
    </linearGradient>
    <linearGradient
       inkscape:collect="always"
       id="linearGradient2223">
      <stop
         style="stop-color:#ffffff;stop-opacity:1;"
         offset="0"
         id="stop2225" />
      <stop
         style="stop-color:#ffffff;stop-opacity:0;"
         offset="1"
         id="stop2229" />
    </linearGradient>
    <linearGradient
       id="linearGradient2222">
      <stop
         style="stop-color:#ff210f;stop-opacity:1;"
         offset="0"
         id="stop2224" />
      <stop
         style="stop-color:#f5ff00;stop-opacity:1;"
         offset="1"
         id="stop2227" />
    </linearGradient>
    <linearGradient
       id="linearGradient3090">
      <stop
         style="stop-color:#626c07;stop-opacity:1;"
         offset="0"
         id="stop3092" />
      <stop
         style="stop-color:#313603;stop-opacity:1;"
         offset="1"
         id="stop3094" />
    </linearGradient>
    <linearGradient
       id="linearGradient2224">
      <stop
         style="stop-color:#32342f;stop-opacity:0.54639173;"
         offset="0.0000000"
         id="stop2226" />
      <stop
         style="stop-color:#32342f;stop-opacity:0;"
         offset="1"
         id="stop2228" />
    </linearGradient>
    <linearGradient
       id="linearGradient2214">
      <stop
         style="stop-color:#a9aaa7;stop-opacity:1.0000000;"
         offset="0.0000000"
         id="stop2216" />
      <stop
         style="stop-color:#676964;stop-opacity:1.0000000;"
         offset="1.0000000"
         id="stop2218" />
    </linearGradient>
    <linearGradient
       id="linearGradient2206">
      <stop
         style="stop-color:#c3c6c0;stop-opacity:1.0000000;"
         offset="0.0000000"
         id="stop2208" />
      <stop
         style="stop-color:#e8eae6;stop-opacity:1.0000000;"
         offset="1.0000000"
         id="stop2210" />
    </linearGradient>
    <linearGradient
       id="linearGradient2198">
      <stop
         style="stop-color:#32342f;stop-opacity:1;"
         offset="0"
         id="stop2200" />
      <stop
         style="stop-color:#171816;stop-opacity:1.0000000;"
         offset="1.0000000"
         id="stop2202" />
    </linearGradient>
    <radialGradient
       inkscape:collect="always"
       xlink:href="#linearGradient2224"
       id="radialGradient2230"
       cx="24.04163"
       cy="42.24213"
       fx="24.04163"
       fy="42.24213"
       r="17.576654"
       gradientTransform="matrix(1,0,0,0.304598,0,29.37527)"
       gradientUnits="userSpaceOnUse" />
    <linearGradient
       inkscape:collect="always"
       xlink:href="#linearGradient2223"
       id="linearGradient2231"
       x1="35.694206"
       y1="37.333858"
       x2="15.044075"
       y2="5.9588566"
       gradientUnits="userSpaceOnUse"
       gradientTransform="matrix(5.1962687,0,0,6.2107502,3.7745198,4.7539199)" />
    <linearGradient
       y2="18.6875"
       x2="15.375"
       y1="18.6875"
       x1="6.375"
       gradientUnits="userSpaceOnUse"
       id="linearGradient3852"
       xlink:href="#linearGradient2887"
       inkscape:collect="always" />
    <linearGradient
       y2="21.46875"
       x2="34.0625"
       y1="2.90625"
       x1="25.625"
       gradientUnits="userSpaceOnUse"
       id="linearGradient3850"
       xlink:href="#linearGradient2895"
       inkscape:collect="always" />
    <radialGradient
       r="21.125"
       fy="34.756092"
       fx="23.625"
       cy="34.756092"
       cx="23.625"
       gradientTransform="matrix(1,0,0,0.727811,0,5.954142)"
       gradientUnits="userSpaceOnUse"
       id="radialGradient3848"
       xlink:href="#linearGradient1442"
       inkscape:collect="always" />
    <radialGradient
       r="15.644737"
       fy="36.421127"
       fx="24.837126"
       cy="36.421127"
       cx="24.837126"
       gradientTransform="matrix(1,0,0,0.536723,0,16.87306)"
       gradientUnits="userSpaceOnUse"
       id="radialGradient3846"
       xlink:href="#linearGradient8662"
       inkscape:collect="always" />
    <linearGradient
       y2="22.0625"
       x2="34.25"
       y1="6.875"
       x1="27.8125"
       gradientTransform="matrix(-1,0,0,1,49.53288,19.15626)"
       gradientUnits="userSpaceOnUse"
       id="linearGradient3844"
       xlink:href="#linearGradient2895"
       inkscape:collect="always" />
    <linearGradient
       y2="22.0625"
       x2="34.25"
       y1="6.875"
       x1="27.8125"
       gradientTransform="translate(1.68913,19.12501)"
       gradientUnits="userSpaceOnUse"
       id="linearGradient3842"
       xlink:href="#linearGradient2895"
       inkscape:collect="always" />
    <radialGradient
       r="21.02195"
       fy="56.092682"
       fx="27.1875"
       cy="56.092682"
       cx="27.1875"
       gradientTransform="matrix(1,0,0,0.955627,0,2.047905)"
       gradientUnits="userSpaceOnUse"
       id="radialGradient3840"
       xlink:href="#linearGradient3824"
       inkscape:collect="always" />
    <radialGradient
       r="21.125"
       fy="34.756092"
       fx="23.625"
       cy="34.756092"
       cx="23.625"
       gradientTransform="matrix(1,0,0,0.727811,-67.06087,69.20415)"
       gradientUnits="userSpaceOnUse"
       id="radialGradient3811"
       xlink:href="#linearGradient1442"
       inkscape:collect="always" />
    <radialGradient
       r="15.644737"
       fy="36.421127"
       fx="24.837126"
       cy="36.421127"
       cx="24.837126"
       gradientTransform="matrix(1,0,0,0.536723,0,16.87306)"
       gradientUnits="userSpaceOnUse"
       id="radialGradient3795"
       xlink:href="#linearGradient8662"
       inkscape:collect="always" />
    <linearGradient
       inkscape:collect="always"
       id="linearGradient2895">
      <stop
         style="stop-color:white;stop-opacity:1;"
         offset="0"
         id="stop2897" />
      <stop
         style="stop-color:white;stop-opacity:0;"
         offset="1"
         id="stop2899" />
    </linearGradient>
    <linearGradient
       inkscape:collect="always"
       id="linearGradient2887">
      <stop
         style="stop-color:white;stop-opacity:1;"
         offset="0"
         id="stop2889" />
      <stop
         style="stop-color:white;stop-opacity:0;"
         offset="1"
         id="stop2891" />
    </linearGradient>
    <linearGradient
       inkscape:collect="always"
       id="linearGradient8662">
      <stop
         style="stop-color:#000000;stop-opacity:1;"
         offset="0"
         id="stop8664" />
      <stop
         style="stop-color:#000000;stop-opacity:0;"
         offset="1"
         id="stop8666" />
    </linearGradient>
    <linearGradient
       id="linearGradient1442">
      <stop
         style="stop-color:#73d216"
         offset="0"
         id="stop1444" />
      <stop
         style="stop-color:#4e9a06"
         offset="1.0000000"
         id="stop1446" />
    </linearGradient>
    <radialGradient
       gradientTransform="matrix(2.128185,0,0,2.128254,86.73094,-82.41779)"
       gradientUnits="userSpaceOnUse"
       r="20.530962"
       fy="35.596233"
       fx="25.457863"
       cy="35.596233"
       cx="25.457863"
       id="radialGradient2939"
       xlink:href="#linearGradient2933"
       inkscape:collect="always" />
    <linearGradient
       id="linearGradient2933">
      <stop
         id="stop2935"
         offset="0"
         style="stop-color:#9cbcde;stop-opacity:1" />
      <stop
         id="stop2937"
         offset="1"
         style="stop-color:#204a87" />
    </linearGradient>
    <linearGradient
       y2="609.50507"
       x2="302.85715"
       y1="366.64789"
       x1="302.85715"
       gradientTransform="matrix(2.774389,0,0,1.969706,-1892.179,-872.8854)"
       gradientUnits="userSpaceOnUse"
       id="linearGradient6715"
       xlink:href="#linearGradient5048"
       inkscape:collect="always" />
    <linearGradient
       id="linearGradient2302">
      <stop
         id="stop2304"
         offset="0"
         style="stop-color:black;stop-opacity:0;" />
      <stop
         style="stop-color:black;stop-opacity:1;"
         offset="0.5"
         id="stop2306" />
      <stop
         id="stop2308"
         offset="1"
         style="stop-color:black;stop-opacity:0;" />
    </linearGradient>
    <radialGradient
       r="117.14286"
       fy="486.64789"
       fx="605.71429"
       cy="486.64789"
       cx="605.71429"
       gradientTransform="matrix(2.774389,0,0,1.969706,-1891.633,-872.8854)"
       gradientUnits="userSpaceOnUse"
       id="radialGradient6717"
       xlink:href="#linearGradient5060"
       inkscape:collect="always" />
    <radialGradient
       r="117.14286"
       fy="486.64789"
       fx="605.71429"
       cy="486.64789"
       cx="605.71429"
       gradientTransform="matrix(-2.774389,0,0,1.969706,112.7623,-872.8854)"
       gradientUnits="userSpaceOnUse"
       id="radialGradient6719"
       xlink:href="#linearGradient5060"
       inkscape:collect="always" />
    <linearGradient
       id="linearGradient3824">
      <stop
         style="stop-color:#f89c9c;stop-opacity:1;"
         offset="0"
         id="stop3826" />
      <stop
         style="stop-color:#d80000;stop-opacity:1;"
         offset="1"
         id="stop3828" />
    </linearGradient>
    <radialGradient
       inkscape:collect="always"
       xlink:href="#linearGradient3824"
       id="radialGradient2385"
       gradientUnits="userSpaceOnUse"
       gradientTransform="matrix(1,0,0,0.955627,0,2.047905)"
       cx="27.1875"
       cy="56.092682"
       fx="27.1875"
       fy="56.092682"
       r="21.02195" />
    <linearGradient
       inkscape:collect="always"
       xlink:href="#linearGradient2895"
       id="linearGradient2387"
       gradientUnits="userSpaceOnUse"
       gradientTransform="translate(1.68913,19.12501)"
       x1="27.8125"
       y1="6.875"
       x2="34.25"
       y2="22.0625" />
    <linearGradient
       inkscape:collect="always"
       xlink:href="#linearGradient2895"
       id="linearGradient2389"
       gradientUnits="userSpaceOnUse"
       gradientTransform="matrix(-1,0,0,1,49.53288,19.15626)"
       x1="27.8125"
       y1="6.875"
       x2="34.25"
       y2="22.0625" />
    <linearGradient
       inkscape:collect="always"
       xlink:href="#linearGradient2206"
       id="linearGradient3259"
       gradientUnits="userSpaceOnUse"
       gradientTransform="matrix(4.958717,0,0,5.4293654,10.049581,-0.5822992)"
       x1="25.861118"
       y1="26.133587"
       x2="18.300278"
       y2="19.567596" />
    <linearGradient
       inkscape:collect="always"
       xlink:href="#linearGradient2214"
       id="linearGradient3261"
       gradientUnits="userSpaceOnUse"
       gradientTransform="matrix(4.958717,0,0,5.4293654,10.049581,-0.5822992)"
       x1="0.0012142062"
       y1="24.012266"
       x2="47.998764"
       y2="24.012266" />
    <linearGradient
       inkscape:collect="always"
       xlink:href="#linearGradient2222"
       id="linearGradient3217"
       x1="69.607491"
       y1="76.307281"
       x2="184.14116"
       y2="187.72585"
       gradientUnits="userSpaceOnUse" />
    <inkscape:perspective
       id="perspective2983"
       inkscape:persp3d-origin="0.5 : 0.33333333 : 1"
       inkscape:vp_z="1 : 0.5 : 1"
       inkscape:vp_y="0 : 1000 : 0"
       inkscape:vp_x="0 : 0.5 : 1"
       sodipodi:type="inkscape:persp3d" />
    <filter
       y="0"
       x="0"
       filterUnits="userSpaceOnUse"
       id="ShadowBlur">
      <feGaussianBlur
         id="feGaussianBlur24"
         result="blur"
         stdDeviation="3"
         in="SourceAlpha" />
    </filter>
    <clipPath
       id="clipoutline1"
       clipPathUnits="userSpaceOnUse">
      <path
         d="M 54.1,12.5 L 12.9,54.7 C -2.7,70.3 23,69 32.3,74.9 C 36.6,77.7 18.5,81.3 22.2,85 C 25.8,88.7 43.9,92.1 47.5,95.7 C 51.1,99.4 40.2,103.3 43.8,107 C 47.3,110.7 55.7,107.2 57.2,115.6 C 58.3,121.8 72.6,118.7 79,113.4 C 83,110 72.1,110 75.7,106.3 C 84.7,97.2 92.7,102.2 96,93.8 C 97.8,89.3 82.4,86.1 86.5,83.2 C 96.3,76.3 132.3,72.8 115.7,56.2 L 73,12.5 C 67.7,7.5 59,7.5 54.1,12.5 z M 44.2,77.2 C 45.1,77.2 75,81.2 63.5,84.3 C 59.1,85.5 38.9,77.2 44.2,77.2 z M 101.4,93.8 C 101.4,95.9 117.7,97.1 116.8,93.3 C 115.5,86.9 103.2,87.4 101.4,93.8 z M 31.9,104.9 C 35.6,108.1 41.2,104.2 43,99.7 C 39.4,95 26.1,100 31.9,104.9 z M 99.4,98.2 C 94.8,102.4 100.2,106.8 104.7,103.9 C 105.9,103.1 104.6,99.2 99.4,98.2 z "
         id="outline1" />
    </clipPath>
    <linearGradient
       gradientUnits="userSpaceOnUse"
       y2="60"
       x2="58"
       y1="35"
       x1="33"
       xlink:href="#WhiteTransparent"
       id="shinySpecular" />
    <linearGradient
       gradientUnits="userSpaceOnUse"
       y2="50"
       x2="90"
       y1="20"
       x1="60"
       xlink:href="#WhiteTransparent"
       id="IcecapTip" />
    <linearGradient
       gradientUnits="userSpaceOnUse"
       y2="40"
       x2="60"
       y1="20"
       x1="80"
       xlink:href="#WhiteTransparent"
       id="sideSpecular" />
    <linearGradient
       gradientUnits="userSpaceOnUse"
       y2="76"
       x2="0"
       y1="128"
       x1="0"
       xlink:href="#WhiteTransparent"
       id="liquidSpecular" />
    <linearGradient
       gradientUnits="userSpaceOnUse"
       y2="64"
       x2="0"
       y1="128"
       x1="0"
       xlink:href="#BlackTransparent"
       id="liquidShade" />
    <linearGradient
       gradientUnits="userSpaceOnUse"
       id="BlackTransparent">
      <stop
         id="stop12"
         offset="0"
         style="stop-color:black;stop-opacity:1" />
      <stop
         id="stop14"
         offset="1"
         style="stop-color:black;stop-opacity:0" />
    </linearGradient>
    <linearGradient
       gradientUnits="userSpaceOnUse"
       id="WhiteTransparent">
      <stop
         id="stop7"
         offset="0"
         style="stop-color:white;stop-opacity:1" />
      <stop
         id="stop9"
         offset="1"
         style="stop-color:white;stop-opacity:0" />
    </linearGradient>
    <inkscape:perspective
       id="perspective8442"
       inkscape:persp3d-origin="64 : 42.666667 : 1"
       inkscape:vp_z="128 : 64 : 1"
       inkscape:vp_y="0 : 1000 : 0"
       inkscape:vp_x="0 : 64 : 1"
       sodipodi:type="inkscape:persp3d" />
  </defs>
  <sodipodi:namedview
     id="base"
     pagecolor="#ffffff"
     bordercolor="#666666"
     borderopacity="0.25490196"
     inkscape:pageopacity="1"
     inkscape:pageshadow="2"
     inkscape:zoom="1.6245048"
     inkscape:cx="160.21607"
     inkscape:cy="147.71565"
     inkscape:current-layer="layer1"
     showgrid="false"
     inkscape:grid-bbox="true"
     inkscape:document-units="px"
     inkscape:window-width="1270"
     inkscape:window-height="744"
     inkscape:window-x="0"
     inkscape:window-y="25"
     inkscape:showpageshadow="false"
     fill="#204a87"
     width="256px"
     height="256px"
     inkscape:window-maximized="0" />
  <metadata
     id="metadata1311">
    <rdf:RDF>
      <cc:Work
         rdf:about="">
        <dc:format>image/svg+xml</dc:format>
        <dc:type
           rdf:resource="http://purl.org/dc/dcmitype/StillImage" />
        <dc:title />
        <dc:date>2005-10-10</dc:date>
        <dc:creator>
          <cc:Agent>
            <dc:title>Andreas Nilsson</dc:title>
          </cc:Agent>
        </dc:creator>
        <dc:subject>
          <rdf:Bag>
            <rdf:li>system</rdf:li>
            <rdf:li>monitor</rdf:li>
            <rdf:li>performance</rdf:li>
          </rdf:Bag>
        </dc:subject>
        <cc:license
           rdf:resource="http://creativecommons.org/licenses/by-sa/2.0/" />
        <dc:contributor>
          <cc:Agent>
            <dc:title>Jakub Steiner</dc:title>
          </cc:Agent>
        </dc:contributor>
      </cc:Work>
      <cc:License
         rdf:about="http://creativecommons.org/licenses/by-sa/2.0/">
        <cc:permits
           rdf:resource="http://web.resource.org/cc/Reproduction" />
        <cc:permits
           rdf:resource="http://web.resource.org/cc/Distribution" />
        <cc:requires
           rdf:resource="http://web.resource.org/cc/Notice" />
        <cc:requires
           rdf:resource="http://web.resource.org/cc/Attribution" />
        <cc:permits
           rdf:resource="http://web.resource.org/cc/DerivativeWorks" />
        <cc:requires
           rdf:resource="http://web.resource.org/cc/ShareAlike" />
      </cc:License>
    </rdf:RDF>
  </metadata>
  <g
     id="layer1"
     inkscape:label="Layer 1"
     inkscape:groupmode="layer">
    <rect
       style="opacity:1;fill:#ffffff;fill-opacity:1;stroke:none;stroke-width:4.50000000000000000;stroke-linejoin:round;stroke-miterlimit:4;stroke-opacity:1;stroke-dasharray:none"
       id="rect2914"
       width="213.60356"
       height="206.21669"
       x="24.622889"
       y="25.160423" />
    <path
       style="opacity:1;fill:url(#linearGradient3259);fill-opacity:1;fill-rule:evenodd;stroke:url(#linearGradient3261);stroke-width:5.26873302;stroke-linecap:round;stroke-linejoin:round;stroke-miterlimit:4;stroke-dasharray:none;stroke-dashoffset:0;stroke-opacity:1"
       d="M 36.3125,18.605616 C 23.142047,18.605616 12.53125,29.462787 12.53125,42.949366 L 12.53125,216.60562 C 12.53125,230.0922 23.142048,240.94937 36.3125,240.94937 L 221.8125,240.94937 C 234.98295,240.94937 245.59375,230.0922 245.59375,216.60562 L 245.59375,42.949366 C 245.59375,29.462789 234.98295,18.605616 221.8125,18.605616 L 36.3125,18.605616 z M 41.25,39.949366 L 216.8125,39.949366 C 221.691,39.949366 225.625,44.649667 225.625,50.480616 L 225.625,209.26187 C 225.625,215.09282 221.691,219.76187 216.8125,219.76187 L 41.25,219.76187 C 36.371495,219.76187 32.4375,215.09282 32.4375,209.26187 L 32.4375,50.480616 C 32.4375,44.649668 36.371496,39.949366 41.25,39.949366 z "
       id="rect1316" />
    <rect
       ry="15.959591"
       rx="13.352705"
       y="33.545513"
       x="26.218273"
       height="190.33578"
       width="204.47249"
       id="rect2221"
       style="opacity:0.57386361;fill:none;fill-opacity:1;fill-rule:evenodd;stroke:url(#linearGradient2231);stroke-width:5.68090916;stroke-linecap:round;stroke-linejoin:round;stroke-miterlimit:4;stroke-dasharray:none;stroke-dashoffset:0;stroke-opacity:1" />
    <g
       id="g28"
       transform="matrix(1.9603783,0,0,1.9603783,0.89637614,1.97983)">
      <path
         id="path30"
         d="m 8,62.9 c -2.5,9.4 15.4,11.1 24.3,14.7 2.2,1 1.2,-3.2 0.1,-4.2 C 25.2,69.8 10.2,69 8,62.9 z m 111.6,1 c -2.7,8.9 -25,13.1 -33,17.8 -2.1,1.2 -3.2,6.3 0.4,4.3 9.6,-5.3 35.8,-10.7 32.6,-22.1 z M 44.3,75.7 C 41,75.7 39,77.3 44.9,79.4 52.6,80 63.7,83 66,84 69.8,77.5 45,75.7 44.3,75.7 z m -21.1,8.5 c -1.4,-1.2 -2.9,1 -0.9,2.8 3.5,3.8 22.6,7.9 26.3,11.5 1.8,0.9 1.2,-2.5 0.1,-3.6 C 45.3,91.5 28.2,87.6 23.2,84.2 z m 78.5,9.7 c 0.2,3.5 15.8,7.6 15.2,0.1 -0.2,-2.6 -15.4,-2.7 -15.2,-0.1 z m -6.1,-0.2 c -3.4,7.1 -11.3,2.5 -19.8,11.1 -2.3,1.7 -1.3,6.2 1,3.8 8.7,-8.2 16.4,-3.7 19.4,-12.6 0.2,-1 0,-1.6 -0.6,-2.3 z M 31.5,106 c 4.5,5 9.8,1.8 11.5,-5.7 -0.4,-1.7 -16.8,0.1 -11.5,5.7 z m 67.2,-5.8 c -5.4,4.4 3.3,9.4 6,5.8 3.6,-4.7 -3.4,-3.4 -6,-5.8 z M 43.5,105 c -0.9,1.2 -0.8,3 0.3,4.2 3.6,3.6 12,0.1 13.5,8.6 1.1,6.1 15.2,3.5 22,-1.4 1.5,-1.6 1.6,-5.4 -0.3,-4.4 -29.8,13.4 -10.8,-3.8 -35.5,-7 z"
         class="base-shadow"
         style="fill:#000000;filter:url(#ShadowBlur)" />
      <use
         id="use32"
         xlink:href="#outline1"
         class="outline-big"
         style="opacity:0.1;fill:none;stroke:none"
         x="0"
         y="0"
         width="1"
         height="1" />
      <use
         id="use34"
         xlink:href="#outline1"
         class="outline-small"
         style="opacity:0.2;fill:none;stroke:none"
         x="0"
         y="0"
         width="1"
         height="1" />
      <use
         id="use36"
         xlink:href="#outline1"
         class="black;"
         x="0"
         y="0"
         width="1"
         height="1" />
      <use
         id="use38"
         class="stroke-highlight"
         xlink:href="#outline1"
         clip-path="url(#clipoutline1)"
         style="opacity:0.2;fill:none;stroke:none"
         x="0"
         y="0"
         width="1"
         height="1" />
      <use
         id="use40"
         xlink:href="#outline1"
         class="specularity"
         style="opacity:0.5;fill:url(#liquidSpecular)"
         x="0"
         y="0"
         width="1"
         height="1" />
      <use
         id="use42"
         xlink:href="#outline1"
         class="low-specularity"
         style="opacity:0.25;fill:url(#sideSpecular)"
         x="0"
         y="0"
         width="1"
         height="1" />
      <path
         id="path44"
         d="m 16.8,56.9 c -11.1,11 8.4,7.9 23.4,13.8 l 31,-54.5 c -4.7,-4.8 -10.7,-4.4 -15,0 L 16.8,56.9 z"
         style="opacity:0.5;fill:url(#shinySpecular)"
         class="specularity" />
      <path
         id="path46"
         d="m 8.9,61.7 c -2.6,9.4 13.4,9.2 22.3,12.7 1.5,-0.9 2.3,-2 1.2,-3 C 25.2,67.8 11,67.8 8.9,61.7 z m 111.1,1 c -2.7,8.9 -25.5,12.3 -33.4,17 -1.1,1.1 -0.4,2.1 0.9,3.1 9.8,-4.9 35.7,-8.7 32.5,-20.1 z m -75.7,11 c -3.2,0 -5.2,1.6 0.6,3.7 7.7,0.6 18.8,3.7 21.2,4.7 3.7,-6.6 -21,-8.4 -21.8,-8.4 z m -21.1,8.5 c -1.3,0.9 -2,1.9 -0.9,2.9 3.5,3.7 21.5,7.1 25.2,10.7 0.9,-1.2 1.2,-2.4 0.1,-3.6 -3.4,-3.4 -19.4,-6.6 -24.4,-10 z m 79.8,9.1 c -0.7,0.8 -1.3,1.7 -1.5,2.7 0,2.1 15.4,3.4 15.4,-0.6 -0.3,-0.7 -0.6,-1.4 -1.2,-2.1 -2.8,1.6 -9.7,1.2 -12.7,0 z m -7.4,0.4 c -3.4,7.1 -11.3,2.5 -19.8,11.1 -1.4,1.5 -0.6,2.3 0.7,3 8.7,-8.2 16.7,-2.9 19.7,-11.8 0.2,-0.9 0,-1.6 -0.6,-2.3 z m -54,7 c -2.4,3.2 -6.6,5.3 -9.6,2.7 -0.3,-0.2 -0.5,-0.5 -0.7,-0.8 -1.1,1.4 -1.1,2.9 0.7,4.5 3.6,3.1 9.3,-0.8 11,-5.2 -0.3,-0.5 -0.9,-0.9 -1.4,-1.2 z m 56.7,1 c -2.3,3.7 2.3,6.7 6.4,4.4 0.6,-0.7 0.5,-2.1 -0.6,-3.5 -2.4,1.2 -4.7,0.5 -5.8,-0.9 z m -54.4,3.9 c -0.9,1.1 -1.2,2.4 -0.1,3.6 3.6,3.6 12,0.1 13.5,8.6 1.1,6.1 14.7,2.9 21.5,-2 1.5,-1.64 0.8,-2.7 -0.5,-3.5 -7.1,4.8 -20,7.7 -21,1.9 -1.5,-8.5 -9.8,-5.1 -13.4,-8.6 z"
         class="shade"
         style="fill:url(#liquidShade)" />
      <path
         d="m 70.5,15.5 16.3,16.6 c 1.5,1.5 1.5,4.6 0.6,5.5 L 79.3,31 77.7,40.7 71,37.1 60.1,44 56.5,29.5 50.7,42.1 36.2,42 c -2.8,0 -2.4,-2.9 0.5,-5.8 5.7,-6.3 16.8,-17 20.3,-20.7 3.6,-3.7 9.9,-3.6 13.5,0 z"
         style="fill:url(#IcecapTip)"
         class="full-specularity"
         id="icecap" />
    </g>
  </g>
  <style
     id="style26"
     type="text/css">
	.specularity {opacity:0.5;}
	.low-specularity {opacity:0.25;}
	.full-specularity {opacity:1;}
	.black {fill:#000000;}
	.white {fill:#ffffff;}
	.outline-big {stroke-width:16;stroke:none;opacity:0.1;fill:none;}
	.outline-small {stroke-width:8;stroke:none;opacity:0.2;fill:none;}
	.stroke-highlight {fill:none;stroke:none;opacity:0.2;}
       	.base-shadow 	{fill:black;opacity:75;}
	</style>
</svg>
